<svg version="1" xmlns="http://www.w3.org/2000/svg" width="682.667" height="682.667" viewBox="0 0 512.000000 512.000000"><path d="M480.5 18.7c-88.8 51.9-164 93.9-204.5 114.1-30.7 15.4-37.5 18.1-41.6 16.7-4.9-1.8-6.9-5.7-7.2-14.9-.5-9.8 1.6-18.5 7.8-32.7 2.1-5.1 3.8-9.4 3.7-9.5-.6-.4-188.1 158.5-194.9 165.2-21.1 20.9-35.5 48.2-41.5 78.9-2.7 13.8-2.4 41.6.6 55.5 8.7 40.7 32.4 75.3 66.7 97.2 15 9.6 36.3 17.6 55.5 20.9 15.7 2.7 39.8 2.2 55.1-1 31.1-6.7 60.1-23.6 80.2-46.6 6.4-7.4 186.6-246.9 186.6-248 0-.3-5.1-.5-11.3-.5-14.3 0-20.7-1.7-26.1-7.1-3.7-3.7-3.8-4.2-3.3-8.7 1.9-16.3 35.7-80.7 89.4-170.5 8.5-14.2 15.3-26 15.1-26.2-.2-.2-13.8 7.5-30.3 17.2zm-30.8 44c-33.1 56.4-60.3 110.7-64.7 129.2-3.3 14.1 3.6 29.2 16.9 36.8 2.5 1.5 4.8 2.8 4.9 2.9.2.1-35.5 48.1-79.4 106.6-84.8 112.9-89.6 118.9-105.6 129.6-13.9 9.4-28.4 15.7-44.8 19.7-8.9 2.2-34.3 3.1-45.3 1.6-18-2.4-37.1-9.6-52.4-19.7-10.9-7.1-29-25.1-35.8-35.4-13.1-20.2-20.2-41.7-21.2-65-1.4-33.4 8.1-62.1 29.1-87.5 8.1-9.9 4.4-6.7 137.6-118.8l17.4-14.7 2.3 4.8c5.2 10.9 14.6 18 25.4 18.9 8.4.8 18.3-2.6 44.7-15.7 31.6-15.6 68.5-35.7 137.7-75.2C434.7 70.5 449.6 62 449.8 62c.2 0 .1.3-.1.7z"/><path d="M140 256.1c-49 4.1-88.5 41-96.5 90-6.6 40.9 11.6 82.6 46.1 105.5 30.3 20.1 66.8 23.8 100.8 10 19.3-7.8 39.9-25.4 50.3-43.1 25.7-43.4 19.3-96.3-15.8-131.4-22.5-22.6-52.9-33.7-84.9-31zm33.5 24.9c44.9 14.4 69.7 58.9 58 104-7.4 28.5-31.2 52.3-60.4 60.2-11.2 3.1-32.6 3.1-43.3.1-15.6-4.5-27.7-11.6-38.6-22.5-10.9-10.9-18-23-22.4-38.6-3-10.2-3.1-31.2-.4-41.7 8-30.9 31.9-54.8 62.4-62.5 11-2.8 34.5-2.3 44.7 1z"/></svg>